<svg width="800" height="600" viewBox="0 0 800 600" xmlns="http://www.w3.org/2000/svg">
  <!-- Basketball Court -->
  <rect width="800" height="600" fill="#8B5CF6"/>
  
  <!-- Court Lines -->
  <g stroke="#FFFFFF" stroke-width="3" fill="none">
    <!-- Outer boundary -->
    <rect x="50" y="50" width="700" height="500"/>
    
    <!-- Half court line -->
    <line x1="400" y1="50" x2="400" y2="550"/>
    
    <!-- Center circle -->
    <circle cx="400" cy="300" r="60"/>
    
    <!-- Left three-point line -->
    <path d="M 50 150 L 200 150 Q 250 300 200 450 L 50 450"/>
    
    <!-- Right three-point line -->
    <path d="M 750 150 L 600 150 Q 550 300 600 450 L 750 450"/>
    
    <!-- Left key -->
    <rect x="50" y="200" width="150" height="200"/>
    <circle cx="200" cy="300" r="60"/>
    
    <!-- Right key -->
    <rect x="600" y="200" width="150" height="200"/>
    <circle cx="600" cy="300" r="60"/>
    
    <!-- Left basket -->
    <circle cx="50" cy="300" r="10" fill="#FF6B35"/>
    
    <!-- Right basket -->
    <circle cx="750" cy="300" r="10" fill="#FF6B35"/>
  </g>
  
  <!-- Shot zones overlay -->
  <g opacity="0.3">
    <circle cx="200" cy="300" r="80" fill="#10B981"/>
    <circle cx="600" cy="300" r="80" fill="#10B981"/>
    <path d="M 200 150 L 250 200 L 250 400 L 200 450 Z" fill="#F59E0B"/>
    <path d="M 600 150 L 550 200 L 550 400 L 600 450 Z" fill="#F59E0B"/>
  </g>
</svg>

